<?xml version="1.0" encoding="utf-8"?>
<!-- Generator: Adobe Illustrator 26.4.1, SVG Export Plug-In . SVG Version: 6.00 Build 0)  -->
<svg version="1.1" id="Layer_2_00000031209730310014931950000003158243883183617187_"
	 xmlns="http://www.w3.org/2000/svg" xmlns:xlink="http://www.w3.org/1999/xlink" x="0px" y="0px" viewBox="0 0 30 30"
	 style="enable-background:new 0 0 30 30;" xml:space="preserve">
<g>
	<path d="M15.1,24c-1.8,0-3.7,0-5.5,0c-1,0-1.7-0.4-2.3-1.2C7.1,22.4,7,22,7,21.5c0-3.8,0-7.5,0-11.3c0-1.4,1.1-2.5,2.5-2.5
		c1.9,0,3.7,0,5.6,0c0.4,0,0.8,0.3,0.8,0.7c0.1,0.4-0.1,0.8-0.5,0.9c-0.1,0-0.3,0.1-0.4,0.1c-1.8,0-3.6,0-5.4,0c-0.6,0-1,0.4-1,1
		c0,3.7,0,7.4,0,11.1c0,0.6,0.3,1,1,1c3.7,0,7.4,0,11.1,0c0.5,0,1-0.3,1-1c0-1.8,0-3.6,0-5.5c0-0.5,0.3-0.9,0.7-0.9
		c0.5,0,0.9,0.3,0.9,0.8c0,1.2,0,2.4,0,3.6c0,0.6,0,1.3,0,1.9c0,1.5-1.1,2.5-2.5,2.5C18.8,24,17,24,15.1,24z"/>
	<path d="M22.6,6c0.9,0.1,1.8,0.5,2.2,1.5c0.4,1,0.3,1.9-0.4,2.7c-0.1,0.1-0.1,0.2-0.2,0.2c-2.5,2.5-5,5-7.5,7.5
		c-0.2,0.2-0.4,0.3-0.6,0.4c-1,0.2-2,0.5-3,0.8c-0.7,0.2-1.2-0.4-1-1c0.3-1,0.5-2.1,0.8-3.1c0-0.2,0.1-0.4,0.3-0.5
		c2.5-2.6,5.1-5.1,7.6-7.6C21.1,6.3,21.7,6,22.6,6z M13.8,17.2c0.6-0.1,1.1-0.3,1.7-0.4c0.1,0,0.1-0.1,0.2-0.1c2.5-2.5,5-5,7.4-7.4
		c0.4-0.4,0.4-1,0-1.3c-0.4-0.5-0.9-0.5-1.4-0.1c-2.5,2.5-5,5-7.4,7.4c-0.1,0.1-0.1,0.1-0.1,0.2C14.1,16.1,13.9,16.6,13.8,17.2z"/>
</g>
</svg>
