<?xml version="1.0" encoding="utf-8"?>
<!-- Generator: Adobe Illustrator 26.4.1, SVG Export Plug-In . SVG Version: 6.00 Build 0)  -->
<svg version="1.1" id="Layer_2_00000135661975976913056720000006425003433234551943_"
	 xmlns="http://www.w3.org/2000/svg" xmlns:xlink="http://www.w3.org/1999/xlink" x="0px" y="0px" viewBox="0 0 30 30"
	 style="enable-background:new 0 0 30 30;" xml:space="preserve">
<style type="text/css">
	.st0{stroke:#000000;stroke-width:0.2;stroke-miterlimit:10;}
</style>
<g>
	<g>
		<path class="st0" d="M10.3,24c-0.1,0-0.2-0.1-0.3-0.1c-0.6-0.2-0.9-0.7-0.9-1.3c0-0.1,0-0.2,0-0.3c0-3.5,0-7,0-10.5
			c0-0.2,0-0.2-0.2-0.3c-0.4-0.1-0.7-0.5-0.7-1c0-0.4,0-0.8,0-1.1c0-0.7,0.5-1.1,1.1-1.1c1,0,1.9,0,2.9,0c0.1,0,0.1,0,0.2,0
			c0.1-0.3,0.2-0.7,0.4-1c0.4-0.7,1-1.1,1.9-1.3c0,0,0.1,0,0.1,0c0.2,0,0.4,0,0.6,0c0.1,0,0.2,0.1,0.4,0.1c1,0.3,1.6,1,1.9,2
			c0,0.1,0,0.1,0,0.2c0.1,0,0.1,0,0.2,0c1,0,1.9,0,2.9,0c0.7,0,1.2,0.5,1.2,1.2c0,0.3,0,0.6,0,0.9c0,0.6-0.3,1-0.8,1.1
			c0,0-0.1,0-0.1,0c0,0.1,0,0.1,0,0.2c0,3.5,0,7.1,0,10.6c0,0.6-0.2,1.1-0.7,1.4c-0.2,0.1-0.3,0.1-0.5,0.2C16.6,24,13.4,24,10.3,24z
			 M20.1,11.6c-3.4,0-6.8,0-10.2,0c0,0.1,0,0.1,0,0.2c0,3.6,0,7.1,0,10.7c0,0.5,0.2,0.7,0.7,0.7c0.9,0,1.8,0,2.7,0c2,0,4.1,0,6.1,0
			c0.5,0,0.7-0.3,0.7-0.7c0-0.1,0-0.1,0-0.2c0-3.5,0-7,0-10.4C20.1,11.8,20.1,11.7,20.1,11.6z M15,10.8c1.9,0,3.7,0,5.6,0
			c0.1,0,0.2,0,0.2,0c0.1-0.1,0.2-0.1,0.2-0.2c0-0.3,0-0.7,0-1.1c0-0.3-0.1-0.4-0.4-0.4c-0.6,0-1.1,0-1.7,0c-3.2,0-6.4,0-9.6,0
			C9,9.1,9,9.2,9,9.5c0,0.3,0,0.6,0,0.8c0,0.4,0.1,0.4,0.4,0.4C11.3,10.8,13.1,10.8,15,10.8z M13.2,8.3c1.2,0,2.3,0,3.5,0
			c-0.1-0.8-0.9-1.4-1.8-1.4C14.1,6.8,13.3,7.5,13.2,8.3z"/>
		<path class="st0" d="M15.4,17.5c0,1.2,0,2.3,0,3.5c0,0.3-0.1,0.5-0.4,0.5c-0.2,0-0.4-0.1-0.4-0.3c0-0.1,0-0.1,0-0.2
			c0-2.3,0-4.6,0-6.8c0,0,0-0.1,0-0.1c0-0.2,0.2-0.4,0.4-0.4c0.2,0,0.4,0.1,0.4,0.3c0,0.1,0,0.1,0,0.2
			C15.4,15.2,15.4,16.4,15.4,17.5z"/>
		<path class="st0" d="M18.3,17.5c0,1.2,0,2.3,0,3.5c0,0.3-0.1,0.4-0.4,0.5c-0.2,0-0.4-0.1-0.4-0.4c0-0.1,0-0.1,0-0.2
			c0-2.3,0-4.6,0-6.9c0,0,0-0.1,0-0.1c0-0.2,0.2-0.4,0.4-0.4c0.2,0,0.4,0.2,0.4,0.4c0,0.1,0,0.2,0,0.2
			C18.3,15.2,18.3,16.4,18.3,17.5z"/>
		<path class="st0" d="M11.8,17.5c0-1.1,0-2.3,0-3.4c0-0.1,0-0.1,0-0.2c0-0.2,0.2-0.4,0.4-0.4c0.2,0,0.4,0.1,0.4,0.3
			c0,0.1,0,0.1,0,0.2c0,2.3,0,4.6,0,6.9c0,0.3-0.1,0.5-0.4,0.5c-0.2,0-0.4-0.1-0.4-0.3c0-0.1,0-0.2,0-0.2
			C11.8,19.8,11.8,18.6,11.8,17.5z"/>
	</g>
</g>
</svg>
