<svg xmlns="http://www.w3.org/2000/svg" xmlns:xlink="http://www.w3.org/1999/xlink" width="122.999" height="122.999" viewBox="0 0 122.999 122.999">
  <defs>
    <filter id="Path_1" x="0" y="0" width="122.999" height="122.999" filterUnits="userSpaceOnUse">
      <feOffset dx="3" dy="3" input="SourceAlpha"/>
      <feGaussianBlur result="blur"/>
      <feFlood/>
      <feComposite operator="in" in2="blur"/>
      <feComposite in="SourceGraphic"/>
    </filter>
  </defs>
  <g id="play" transform="translate(-3.901 -5.208)">
    <g transform="matrix(1, 0, 0, 1, 3.9, 5.21)" filter="url(#Path_1)">
      <g id="Path_1-2" data-name="Path 1" fill="#fff">
        <path d="M 59.999267578125 119.4985427856445 C 51.96669769287109 119.4985427856445 44.17466735839844 117.9254684448242 36.83962249755859 114.8230056762695 C 33.31415939331055 113.3318557739258 29.9138069152832 111.4861907958984 26.73300552368164 109.3372955322266 C 23.58231353759766 107.2087326049805 20.61952972412109 104.7641906738281 17.92692947387695 102.0716094970703 C 15.23434448242188 99.37902069091797 12.78982162475586 96.41622161865234 10.66125202178955 93.26552581787109 C 8.512344360351562 90.08474731445312 6.666698455810547 86.68437194824219 5.175544738769531 83.15891265869141 C 2.07308292388916 75.82386779785156 0.5000060200691223 68.03183746337891 0.5000060200691223 59.999267578125 C 0.5000060200691223 51.96669769287109 2.07308292388916 44.17466735839844 5.175544738769531 36.83962249755859 C 6.666698455810547 33.31415939331055 8.512344360351562 29.9138069152832 10.66125202178955 26.73300552368164 C 12.78982162475586 23.58231353759766 15.23434448242188 20.61952972412109 17.92692947387695 17.92692947387695 C 20.61952972412109 15.23434448242188 23.58231353759766 12.78982162475586 26.73300552368164 10.66125202178955 C 29.9138069152832 8.512344360351562 33.31415939331055 6.666698455810547 36.83962249755859 5.175544738769531 C 44.17466735839844 2.07308292388916 51.96669769287109 0.5000060200691223 59.999267578125 0.5000060200691223 C 68.03183746337891 0.5000060200691223 75.82386779785156 2.07308292388916 83.15891265869141 5.175544738769531 C 86.68437194824219 6.666698455810547 90.08474731445312 8.512344360351562 93.26552581787109 10.66125202178955 C 96.41622161865234 12.78982162475586 99.37902069091797 15.23434448242188 102.0716094970703 17.92692947387695 C 104.7641906738281 20.61952972412109 107.2087326049805 23.58231353759766 109.3372955322266 26.73300552368164 C 111.4861907958984 29.9138069152832 113.3318557739258 33.31415939331055 114.8230056762695 36.83962249755859 C 117.9254684448242 44.17466735839844 119.4985427856445 51.96669769287109 119.4985427856445 59.999267578125 C 119.4985427856445 68.03183746337891 117.9254684448242 75.82386779785156 114.8230056762695 83.15891265869141 C 113.3318557739258 86.68437194824219 111.4861907958984 90.08474731445312 109.3372955322266 93.26552581787109 C 107.2087326049805 96.41622161865234 104.7641906738281 99.37902069091797 102.0716094970703 102.0716094970703 C 99.37902069091797 104.7641906738281 96.41622161865234 107.2087326049805 93.26552581787109 109.3372955322266 C 90.08474731445312 111.4861907958984 86.68437194824219 113.3318557739258 83.15891265869141 114.8230056762695 C 75.82386779785156 117.9254684448242 68.03183746337891 119.4985427856445 59.999267578125 119.4985427856445 Z" stroke="none"/>
        <path d="M 59.999267578125 1 C 52.03398132324219 1 44.30748748779297 2.559783935546875 37.03440093994141 5.63604736328125 C 33.53866577148438 7.114616394042969 30.16695404052734 8.944732666015625 27.01291656494141 11.07556915283203 C 23.88858795166016 13.18631744384766 20.95058441162109 15.61039733886719 18.28048706054688 18.28048706054688 C 15.61039733886719 20.95058441162109 13.18631744384766 23.88858795166016 11.07556915283203 27.01291656494141 C 8.944732666015625 30.16695404052734 7.114616394042969 33.53866577148438 5.63604736328125 37.03440093994141 C 2.559783935546875 44.30748748779297 1 52.03398132324219 1 59.999267578125 C 1 67.96455383300781 2.559783935546875 75.69105529785156 5.63604736328125 82.96413421630859 C 7.114616394042969 86.45986938476562 8.944732666015625 89.83158874511719 11.07556915283203 92.98561859130859 C 13.18631744384766 96.10995483398438 15.61039733886719 99.04795074462891 18.28048706054688 101.7180480957031 C 20.95058441162109 104.3881378173828 23.88858795166016 106.8122177124023 27.01291656494141 108.922966003418 C 30.16695404052734 111.0538024902344 33.53866577148438 112.883918762207 37.03440093994141 114.3624877929688 C 44.30748748779297 117.4387512207031 52.03398132324219 118.99853515625 59.999267578125 118.99853515625 C 67.96455383300781 118.99853515625 75.69105529785156 117.4387512207031 82.96413421630859 114.3624877929688 C 86.45986938476562 112.883918762207 89.83158874511719 111.0538024902344 92.98561859130859 108.922966003418 C 96.10995483398438 106.8122177124023 99.04795074462891 104.3881378173828 101.7180480957031 101.7180480957031 C 104.3881378173828 99.04795074462891 106.8122177124023 96.10995483398438 108.922966003418 92.98561859130859 C 111.0538024902344 89.83158874511719 112.883918762207 86.45986938476562 114.3624877929688 82.96413421630859 C 117.4387512207031 75.69105529785156 118.99853515625 67.96455383300781 118.99853515625 59.999267578125 C 118.99853515625 52.03398132324219 117.4387512207031 44.30748748779297 114.3624877929688 37.03440093994141 C 112.883918762207 33.53866577148438 111.0538024902344 30.16695404052734 108.922966003418 27.01291656494141 C 106.8122177124023 23.88858795166016 104.3881378173828 20.95058441162109 101.7180480957031 18.28048706054688 C 99.04795074462891 15.61039733886719 96.10995483398438 13.18631744384766 92.98561859130859 11.07556915283203 C 89.83158874511719 8.944732666015625 86.45986938476562 7.114616394042969 82.96413421630859 5.63604736328125 C 75.69105529785156 2.559783935546875 67.96455383300781 1 59.999267578125 1 M 59.999267578125 0 C 93.13593292236328 0 119.99853515625 26.86260223388672 119.99853515625 59.999267578125 C 119.99853515625 93.13593292236328 93.13593292236328 119.99853515625 59.999267578125 119.99853515625 C 26.86260223388672 119.99853515625 0 93.13593292236328 0 59.999267578125 C 0 26.86260223388672 26.86260223388672 0 59.999267578125 0 Z" stroke="none" fill="#000"/>
      </g>
    </g>
    <path id="Polygon_15" data-name="Polygon 15" d="M22.592,2.341a2,2,0,0,1,3.277,0L46.258,31.468a2,2,0,0,1-1.638,3.147H3.841A2,2,0,0,1,2.2,31.468Z" transform="translate(86.977 42.131) rotate(90)" opacity="0.95"/>
  </g>
</svg>
