<?xml version="1.0" encoding="utf-8"?>
<!-- Generator: Adobe Illustrator 26.4.1, SVG Export Plug-In . SVG Version: 6.00 Build 0)  -->
<svg version="1.1" id="Layer_1" xmlns="http://www.w3.org/2000/svg" xmlns:xlink="http://www.w3.org/1999/xlink" x="0px" y="0px"
	 viewBox="0 0 70 70" style="enable-background:new 0 0 70 70;" xml:space="preserve">
<style type="text/css">
	.st0{fill:#6234B2;}
</style>
<path class="st0" d="M40.2,45.8c0-2,1.7-3.7,3.7-3.7s3.7,1.7,3.7,3.7s-1.7,3.7-3.7,3.7C41.9,49.5,40.2,47.9,40.2,45.8z M42.7,45.8
	c0,0.6,0.6,1.2,1.2,1.2s1.2-0.6,1.2-1.2s-0.6-1.2-1.2-1.2S42.7,45.2,42.7,45.8z M26.7,45.8c0-2,1.7-3.7,3.7-3.7s3.7,1.7,3.7,3.7
	s-1.7,3.7-3.7,3.7S26.7,47.9,26.7,45.8z M29.1,45.8c0,0.6,0.6,1.2,1.2,1.2s1.2-0.6,1.2-1.2s-0.6-1.2-1.2-1.2S29.1,45.2,29.1,45.8z
	 M29.2,40.9c-1.5,0-2.9-1-3.2-2.6l0,0l-2.5-12.8c-0.1-0.4-0.5-0.6-0.8-0.6h-3.5c-0.6,0-1.2-0.6-1.2-1.2s0.6-1.2,1.2-1.2h3.5
	c1.5,0,2.9,1,3.2,2.6l0,0l2.5,12.8c0.1,0.4,0.5,0.6,0.8,0.6h15.4c0.4,0,0.7-0.2,0.8-0.6l2.1-9l0,0c0.1-0.2,0-0.5-0.2-0.6
	c-0.2-0.2-0.4-0.3-0.7-0.3H34.7c-0.6,0-1.2-0.6-1.2-1.2s0.6-1.2,1.2-1.2h11.9c1,0,2,0.5,2.6,1.3c0.6,0.8,0.8,1.8,0.6,2.7l-2.1,9l0,0
	C47.4,40,46.1,41,44.6,41L29.2,40.9z"/>
</svg>
