<?xml version="1.0" encoding="utf-8"?>
<!-- Generator: Adobe Illustrator 22.0.1, SVG Export Plug-In . SVG Version: 6.00 Build 0)  -->
<svg version="1.1" id="Layer_1" xmlns="http://www.w3.org/2000/svg" xmlns:xlink="http://www.w3.org/1999/xlink" x="0px" y="0px"
	 viewBox="0 0 34 41" style="enable-background:new 0 0 34 41;" xml:space="preserve">
<style type="text/css">
	.st0{fill:#333333;}
</style>
<path class="st0" d="M33,35c-0.3-7.8-7.3-14-16-14S1.3,27.3,1,35h0v4h2v-3h0c0-0.2,0-0.3,0-0.5C3,28.6,9.3,23,17,23s14,5.6,14,12.5
	c0,0.2,0,0.3,0,0.5h0v3h2L33,35L33,35z"/>
<path class="st0" d="M17,19c-5,0-9-4-9-9s4-9,9-9s9,4,9,9S22,19,17,19z M17,3c-3.9,0-7,3.1-7,7s3.1,7,7,7s7-3.1,7-7S20.9,3,17,3z"/>
</svg>
