<svg xmlns="http://www.w3.org/2000/svg" viewBox="0 0 153.07 55.08"><defs><style>.cls-1{fill:#fff;}</style></defs><g id="레이어_2" data-name="레이어 2"><g id="Layer_1" data-name="Layer 1"><path class="cls-1" d="M150.47,29.2a2.55,2.55,0,0,0-2.6,2.48V42.07a2.6,2.6,0,0,0,5.2,0V31.68A2.55,2.55,0,0,0,150.47,29.2Z"/><path class="cls-1" d="M142.74,34a2.54,2.54,0,0,0-2.6,2.48v5.61a2.6,2.6,0,0,0,5.2,0V36.46A2.55,2.55,0,0,0,142.74,34Z"/><path class="cls-1" d="M134.84,36.79a2.55,2.55,0,0,0-2.61,2.47v2.81a2.6,2.6,0,0,0,5.2,0V39.26A2.54,2.54,0,0,0,134.84,36.79Z"/><path class="cls-1" d="M43.57,7.64l-6,22.29-3.74-8.42a3.17,3.17,0,0,0-2.91-1.82h-.15a3.12,3.12,0,0,0-2.85,2.13L23,37.24H3.14a3,3,0,1,0,0,6H25.37a3.13,3.13,0,0,0,3-2.13l3-9.61,4,9a3.17,3.17,0,0,0,3.13,1.82A3.11,3.11,0,0,0,41.33,40l6-22.39Z"/><path class="cls-1" d="M110.59,52.09a3,3,0,0,0-3-3H87.52V2.89a3.16,3.16,0,0,0,0-.32,2.8,2.8,0,0,0-.06-.28A1.52,1.52,0,0,0,87.33,2a1.69,1.69,0,0,0-.11-.27,2.65,2.65,0,0,0-.16-.28,1.64,1.64,0,0,0-.14-.22A3,3,0,0,0,86.7,1c-.06-.06-.11-.12-.18-.18L86.28.63A2.07,2.07,0,0,0,86,.46L85.79.33,85.49.2l-.11,0a.6.6,0,0,0-.18,0,1.65,1.65,0,0,0-.32-.07l-.35,0h-.26l-.35,0-.27,0-.3.08a2.15,2.15,0,0,0-.27.1L82.82.4l-.26.15L82.3.76l-.19.16c-.07.07-.13.15-.22.26a1.56,1.56,0,0,0-.16.2l-.14.24-.14.28-15,41.17L62.57,32.88,57.74,20.13s0,0,0,0l-7-18.25a3.12,3.12,0,0,0-5.87,1.46,3.25,3.25,0,0,0,.11.77s.21.62.19.62L58.84,40.67,63.55,53.1a3.17,3.17,0,0,0,3,2h0a3.14,3.14,0,0,0,3-2L79,27a3.75,3.75,0,0,0,.2-.62l2-5.56v31.3a3.08,3.08,0,0,0,3.14,3h23.28A3,3,0,0,0,110.59,52.09Z"/><path class="cls-1" d="M127.08,37.65h-4.71l-3.89-10a3.21,3.21,0,0,0-3-2h0a3.14,3.14,0,0,0-2.92,2.12l-6.38,20h2.51a2.86,2.86,0,0,1,3,3,2.82,2.82,0,0,1-.12.83h0L115.81,38l1.41,3.66a3.16,3.16,0,0,0,3,2h6.91a3,3,0,1,0,0-6Z"/></g></g></svg>