<?xml version="1.0" encoding="utf-8"?>
<!-- Generator: Adobe Illustrator 26.3.1, SVG Export Plug-In . SVG Version: 6.00 Build 0)  -->
<svg version="1.1" id="Layer_1" xmlns="http://www.w3.org/2000/svg" xmlns:xlink="http://www.w3.org/1999/xlink" x="0px" y="0px"
	 viewBox="0 0 53 53" style="enable-background:new 0 0 53 53;" xml:space="preserve">
<path id="Icon_awesome-instagram" d="M26.5,20.1c-3.5,0-6.4,2.9-6.4,6.4s2.9,6.4,6.4,6.4s6.4-2.9,6.4-6.4l0,0
	C32.9,23,30.1,20.1,26.5,20.1L26.5,20.1z M26.5,30.7c-2.3,0-4.2-1.9-4.2-4.2s1.9-4.2,4.2-4.2s4.2,1.9,4.2,4.2l0,0
	C30.7,28.8,28.8,30.7,26.5,30.7L26.5,30.7z M34.7,19.8c0,0.8-0.7,1.5-1.5,1.5s-1.5-0.7-1.5-1.5s0.7-1.5,1.5-1.5S34.7,19,34.7,19.8
	L34.7,19.8z M38.9,21.3c0-1.9-0.7-3.8-2-5.2c-1.4-1.3-3.3-2.1-5.2-2c-2.1-0.1-8.2-0.1-10.3,0c-1.9,0-3.8,0.7-5.2,2
	c-1.3,1.4-2.1,3.3-2,5.2c-0.1,2.1-0.1,8.3,0,10.3c0,1.9,0.7,3.8,2,5.2c1.4,1.3,3.3,2.1,5.2,2c2.1,0.1,8.2,0.1,10.3,0
	c1.9,0,3.8-0.7,5.2-2c1.3-1.4,2.1-3.3,2-5.2C39,29.6,39,23.4,38.9,21.3L38.9,21.3z M36.2,33.9c-0.4,1.1-1.3,1.9-2.4,2.4
	c-1.6,0.7-5.5,0.5-7.4,0.5s-5.7,0.1-7.4-0.5c-1.1-0.4-1.9-1.3-2.4-2.4c-0.7-1.6-0.5-5.6-0.5-7.4s-0.1-5.7,0.5-7.4
	c0.4-1.1,1.3-1.9,2.4-2.4c1.6-0.7,5.5-0.5,7.4-0.5s5.7-0.1,7.4,0.5c1.1,0.4,1.9,1.3,2.4,2.4c0.7,1.6,0.5,5.6,0.5,7.4
	S36.9,32.2,36.2,33.9z"/>
</svg>
