<?xml version="1.0" encoding="utf-8"?>
<!-- Generator: Adobe Illustrator 26.3.1, SVG Export Plug-In . SVG Version: 6.00 Build 0)  -->
<svg version="1.1" id="Layer_1" xmlns="http://www.w3.org/2000/svg" xmlns:xlink="http://www.w3.org/1999/xlink" x="0px" y="0px"
	 viewBox="0 0 53 53" style="enable-background:new 0 0 53 53;" xml:space="preserve">
<g id="메세지" transform="translate(-198 -299)">
	<path d="M234.6,314.9L234.6,314.9h-20.3c-2.2,0-4,1.8-4,4v14.2v2.4c0,0.3,0.2,0.5,0.5,0.5c0.1,0,0.3-0.1,0.4-0.2
		c1.3-1.4,3-2.3,4.9-2.7c0.5-0.1,0.9-0.1,1.4-0.1h17.1c2.2,0,4-1.8,4-4v-10.2C238.6,316.7,236.8,314.9,234.6,314.9z M218.5,325.5
		c-0.8,0-1.5-0.7-1.5-1.5s0.7-1.5,1.5-1.5s1.5,0.7,1.5,1.5S219.3,325.5,218.5,325.5z M224.5,325.5c-0.8,0-1.5-0.7-1.5-1.5
		s0.7-1.5,1.5-1.5s1.5,0.7,1.5,1.5S225.3,325.5,224.5,325.5z M230.5,325.5c-0.8,0-1.5-0.7-1.5-1.5s0.7-1.5,1.5-1.5s1.5,0.7,1.5,1.5
		S231.3,325.5,230.5,325.5z"/>
</g>
</svg>
