<?xml version="1.0" encoding="utf-8"?>
<!-- Generator: Adobe Illustrator 26.3.1, SVG Export Plug-In . SVG Version: 6.00 Build 0)  -->
<svg version="1.1" id="Layer_1" xmlns="http://www.w3.org/2000/svg" xmlns:xlink="http://www.w3.org/1999/xlink" x="0px" y="0px"
	 viewBox="0 0 53 53" style="enable-background:new 0 0 53 53;" xml:space="preserve">
<g id="밴드" transform="translate(-268 -201)">
	<path id="pinterest-p-brands" d="M295.1,214.5c-5.3,0-10.6,3.6-10.6,9.3c0,3.7,2.1,5.8,3.3,5.8c0.5,0,0.8-1.4,0.8-1.8
		c0-0.5-1.2-1.5-1.2-3.5c-0.1-3.9,3-7.1,6.9-7.2c0.1,0,0.3,0,0.4,0c3.5,0,6.2,2,6.2,5.7c0,2.8-1.1,8-4.7,8c-1.3,0.1-2.4-0.9-2.4-2.2
		c0,0,0,0,0-0.1c0-2,1.4-3.9,1.4-5.9c0-3.4-4.9-2.8-4.9,1.3c0,0.9,0.1,1.8,0.5,2.6c-0.7,3.1-2.2,7.7-2.2,10.9c0,1,0.1,2,0.2,2.9
		c0.2,0.2,0.1,0.2,0.4,0.1c2.6-3.6,2.5-4.3,3.7-9c0.8,1.2,2.2,1.9,3.6,1.9c5.5,0,8-5.4,8-10.3C304.5,217.9,300,214.5,295.1,214.5z"
		/>
</g>
</svg>
