<?xml version="1.0" encoding="utf-8"?>
<!-- Generator: Adobe Illustrator 26.3.1, SVG Export Plug-In . SVG Version: 6.00 Build 0)  -->
<svg version="1.1" id="Layer_1" xmlns="http://www.w3.org/2000/svg" xmlns:xlink="http://www.w3.org/1999/xlink" x="0px" y="0px"
	 viewBox="0 0 53 53" style="enable-background:new 0 0 53 53;" xml:space="preserve">
<style type="text/css">
	.st0{fill:#FFFFFF;}
</style>
<g id="라인" transform="translate(-198 -201)">
	<path id="logo" class="st0" d="M223.7,241.7c-0.1,0-0.3,0-0.4-0.2c-0.1-0.3-0.2-0.6-0.1-0.8l0,0c0-0.2,0.2-1.3,0.2-1.3
		c0.1-0.5,0.1-0.9,0-1.4c-0.2-0.4-0.8-0.6-1.3-0.7c-3.3-0.4-6.5-1.8-9-4.1c-2.2-2-3.5-4.9-3.6-7.9c0-6.7,6.7-12.2,15-12.2
		s15,5.5,15,12.2c-0.1,2.8-1.2,5.5-3.2,7.5c-1.9,2.1-4.1,3.9-6.5,5.5c-1.7,1.2-3.5,2.3-5.3,3.3C224.2,241.6,224,241.7,223.7,241.7z
		 M230.7,221.7c-0.4,0-0.8,0.4-0.8,0.8v6c0,0.4,0.3,0.8,0.8,0.8h3c0.4,0,0.8-0.4,0.8-0.8c0-0.4-0.4-0.8-0.8-0.8h-2.2v-1.4h2.2
		c0.4,0,0.8-0.4,0.8-0.8c0-0.4-0.4-0.8-0.8-0.8h-2.2v-1.4h2.2c0.4,0,0.8-0.4,0.8-0.8c0-0.4-0.4-0.8-0.8-0.8L230.7,221.7z
		 M224.4,224.7L224.4,224.7l3,4.2c0.3,0.3,0.7,0.4,1.1,0.2c0.2-0.1,0.3-0.4,0.3-0.6v-6c0-0.4-0.3-0.8-0.8-0.8
		c-0.4,0-0.8,0.3-0.8,0.8c0,0,0,0,0,0v3.7l-3-4.2c-0.3-0.3-0.7-0.4-1.1-0.2c-0.2,0.1-0.3,0.4-0.3,0.6v6c0,0.4,0.3,0.8,0.8,0.8
		c0.4,0,0.8-0.3,0.8-0.8c0,0,0,0,0-0.1L224.4,224.7L224.4,224.7z M220.9,221.7c-0.4,0-0.8,0.4-0.8,0.8v6c0,0.4,0.3,0.8,0.8,0.8
		c0.4,0,0.8-0.3,0.8-0.8c0,0,0,0,0-0.1v-6C221.7,222,221.4,221.7,220.9,221.7L220.9,221.7z M215.7,221.7c-0.4,0-0.8,0.4-0.8,0.8v6
		c0,0.4,0.3,0.8,0.8,0.8h3c0.4,0,0.8-0.4,0.8-0.8c0-0.4-0.4-0.8-0.8-0.8h-2.2v-5.2C216.5,222,216.1,221.7,215.7,221.7L215.7,221.7z"
		/>
</g>
</svg>
