<?xml version="1.0" encoding="utf-8"?>
<!-- Generator: Adobe Illustrator 26.3.1, SVG Export Plug-In . SVG Version: 6.00 Build 0)  -->
<svg version="1.1" id="Layer_1" xmlns="http://www.w3.org/2000/svg" xmlns:xlink="http://www.w3.org/1999/xlink" x="0px" y="0px"
	 viewBox="0 0 53 53" style="enable-background:new 0 0 53 53;" xml:space="preserve">
<style type="text/css">
	.st0{clip-path:url(#SVGID_00000040566885042930245070000005965424955239527602_);}
</style>
<g id="트위터" transform="translate(-1778 -889.001)">
	<g id="icon_twitter" transform="translate(1792.906 905.564)">
		<g>
			<g>
				<defs>
					<rect id="SVGID_1_" x="0" y="0" width="23.7" height="19.2"/>
				</defs>
				<use xlink:href="#SVGID_1_"  style="overflow:visible;"/>
				<clipPath id="SVGID_00000183248650713377333170000004689035381229520310_">
					<use xlink:href="#SVGID_1_"  style="overflow:visible;"/>
				</clipPath>
				<g id="그룹_1781" style="clip-path:url(#SVGID_00000183248650713377333170000004689035381229520310_);">
					<path id="패스_36263" d="M7.4,19.2c7.6,0.1,13.8-6,13.8-13.6c0-0.1,0-0.1,0-0.2c0-0.2,0-0.4,0-0.6c0.9-0.7,1.8-1.5,2.4-2.5
						c-0.9,0.4-1.8,0.6-2.8,0.8c1-0.6,1.8-1.6,2.1-2.7c-1,0.6-2,1-3.1,1.2c-1.8-2-4.9-2.1-6.9-0.2c-1,0.9-1.5,2.2-1.5,3.5
						c0,0.4,0,0.7,0.1,1.1C7.6,5.8,4,4,1.5,0.9C0.4,3.1,1,5.9,3.1,7.4c-0.8,0-1.5-0.2-2.2-0.6c0,0,0,0,0,0.1c0,2.3,1.6,4.3,3.9,4.8
						c-0.4,0.1-0.8,0.2-1.3,0.2c-0.3,0-0.6,0-0.9-0.1c0.6,2,2.5,3.3,4.5,3.4c-1.7,1.3-3.8,2.1-6,2.1c-0.4,0-0.8,0-1.2-0.1
						C2.2,18.5,4.8,19.2,7.4,19.2"/>
				</g>
			</g>
		</g>
	</g>
</g>
</svg>
